<svg width="95" height="95" viewBox="0 0 95 95" fill="none" xmlns="http://www.w3.org/2000/svg">
<g clip-path="url(#clip0_94_3176)">
<path opacity="0.922" fill-rule="evenodd" clip-rule="evenodd" d="M71.5428 16.3979C71.3361 16.3944 71.3231 16.4429 71.5039 16.5432C70.699 17.7047 69.9125 18.8959 69.1444 20.1168C69.1668 20.2267 69.1894 20.3365 69.2118 20.4464C68.2354 21.5798 67.3875 22.8064 66.6681 24.1264C66.4614 24.1229 66.4484 24.1714 66.6291 24.2717C65.6625 25.5334 64.7402 26.8439 63.8622 28.2034C63.6555 28.1999 63.6425 28.2484 63.8232 28.3487C62.6203 29.6802 61.5137 31.0972 60.5034 32.5996C60.2967 32.5961 60.2837 32.6446 60.4645 32.745C58.9885 34.2743 57.5748 35.8685 56.2233 37.5278C56.0166 37.5243 56.0036 37.5728 56.1844 37.6731C55.9489 38.0403 55.6756 38.3825 55.3641 38.6995C54.4433 39.3324 53.5797 40.0356 52.7738 40.8093C52.1956 41.0925 51.9616 40.9001 52.0718 40.2318C53.0167 39.0428 53.75 37.7595 54.2717 36.3818C54.9885 35.4978 55.6309 34.5535 56.199 33.5491C56.1959 32.9908 56.4405 32.563 56.9323 32.2658C57.4249 31.4034 57.9379 30.5543 58.4715 29.7186C58.4398 29.5866 58.4237 29.4524 58.4236 29.3163C59.4282 28.1568 60.1856 26.8799 60.6961 25.4858C61.6817 24.1677 61.5978 24.0933 60.4444 25.2626C60.3474 25.2366 60.2861 25.2721 60.2601 25.369C60.0534 25.3655 60.0404 25.414 60.2211 25.5143C56.8738 28.0612 53.6172 30.7194 50.4516 33.489C50.3547 33.463 50.2933 33.4984 50.2673 33.5953C50.0606 33.5918 50.0476 33.6404 50.2284 33.7407C49.3374 34.6458 48.327 35.4135 47.1968 36.0438C45.2258 37.7327 43.287 39.4459 41.3803 41.1833C41.2833 41.1574 41.2219 41.1928 41.196 41.2897C40.9893 41.2862 40.9763 41.3348 41.157 41.4351C39.6988 42.627 38.2548 43.8496 36.8251 45.1032C35.867 46.0494 34.9145 46.9883 33.9674 47.9202C33.8705 47.8942 33.8091 47.9297 33.7831 48.0266C33.5764 48.0231 33.5634 48.0716 33.7442 48.1719C33.0886 48.9776 32.3108 49.652 31.4108 50.1948C30.094 51.4096 28.8438 52.6842 27.6602 54.0187C27.4535 54.0152 27.4405 54.0637 27.6213 54.164C26.898 55.0128 26.0942 55.7839 25.21 56.4776C24.4041 57.3184 23.6713 58.2124 23.0115 59.1597C22.8048 59.1562 22.7918 59.2047 22.9726 59.305C22.5255 59.9781 21.9805 60.5589 21.3374 61.0476C20.6986 61.8351 20.137 62.6711 19.6528 63.5559C19.4461 63.5524 19.4331 63.6009 19.6138 63.7012C18.8264 64.7052 18.1693 65.8013 17.6424 66.9893C17.4518 67.8388 17.2489 68.6932 17.0336 69.5522C17.0655 69.8854 17.1637 70.1972 17.328 70.4878C17.1189 70.6665 17.0848 70.891 17.2255 71.1613C17.4028 71.4685 17.5801 71.7755 17.7574 72.0827C18.1334 72.0119 18.319 72.1914 18.3141 72.6213C18.9276 73.172 19.6154 73.512 20.3773 73.6414C20.3159 73.6769 20.2544 73.7124 20.193 73.7478C20.9362 74.1659 21.729 74.4044 22.5716 74.463C23.2769 74.7466 23.9777 75.0382 24.6737 75.3378C25.781 75.651 26.9083 75.9011 28.0554 76.0882C28.9049 76.6769 29.8608 76.985 30.9232 77.0124C31.7364 77.5909 32.6438 77.8861 33.6456 77.8976C34.4503 78.4662 35.3577 78.7612 36.368 78.7829C36.4826 78.8396 36.5973 78.8962 36.7119 78.9529C36.6505 78.9883 36.589 79.0238 36.5276 79.0593C37.28 79.383 38.0615 79.5666 38.8725 79.6097C39.5984 80.0427 40.3588 80.4022 41.1537 80.6882C42.2008 81.0053 43.2666 81.2909 44.351 81.545C45.1009 82.0777 45.9357 82.3534 46.8555 82.3718C47.6865 82.9551 48.6052 83.3052 49.6116 83.4219C50.9948 84.0324 52.3962 84.6157 53.8159 85.1715C54.0943 85.2336 54.3737 85.2566 54.6542 85.2403C55.3955 85.8496 56.2416 86.1802 57.1924 86.232C57.9161 86.8289 58.7379 87.153 59.6579 87.2041C60.4089 87.845 61.2663 88.2305 62.2297 88.3606C62.8608 88.9197 63.5728 89.2663 64.3656 89.4002C64.5766 89.5452 64.6345 89.7165 64.5394 89.9141C64.2615 90.0969 63.9561 90.1709 63.6233 90.1359C49.1657 86.0576 34.6564 82.1699 20.0953 78.4726C19.4745 78.0742 18.811 77.7406 18.1048 77.4719C17.336 77.2122 16.6129 76.8107 15.9352 76.2675C15.8252 76.2899 15.7154 76.3125 15.6055 76.335C15.276 75.8018 14.8226 75.2649 14.2457 74.7244C14.1843 74.7599 14.1228 74.7954 14.0614 74.8308C13.7055 73.9301 13.2622 73.1623 12.7315 72.5274C12.8141 72.485 12.882 72.4253 12.9353 72.3483C12.7923 71.757 12.6072 71.1882 12.38 70.6418C12.5584 69.7776 12.616 68.8843 12.5528 67.9622C12.9785 67.1118 13.2186 66.2157 13.2733 65.2734C14.1076 63.9952 14.7989 62.6746 15.3473 61.3118C16.2973 60.2188 17.1984 59.0842 18.0506 57.9083C18.0003 57.8303 17.9713 57.7447 17.9637 57.6513C19.7275 55.9327 21.3273 54.1287 22.763 52.2392C25.4151 49.9847 27.912 47.6423 30.2537 45.2117C30.6223 44.9989 30.9908 44.7861 31.3594 44.5733C34.3237 42.0637 37.2247 39.5698 40.0622 37.0917C40.615 36.7725 41.1678 36.4533 41.7207 36.1341C45.2236 33.3741 48.8144 30.7277 52.4933 28.1946C52.3831 28.0533 52.3914 27.9257 52.518 27.8118C55.3663 25.8804 58.2569 24.0069 61.1895 22.1911C61.2795 22.0725 61.3847 21.9708 61.5049 21.8862C61.4629 21.849 61.4209 21.8117 61.379 21.7745C59.7022 22.0261 58.0541 22.3633 56.4348 22.7863C56.4383 22.5796 56.3898 22.5665 56.2895 22.7474C54.2263 23.0094 52.2002 23.4011 50.2111 23.9225C50.2146 23.7158 50.166 23.7028 50.0657 23.8836C48.0634 24.1133 46.0988 24.4695 44.1716 24.9524C44.1751 24.7457 44.1266 24.7326 44.0263 24.9134C41.9683 25.1743 39.9422 25.566 37.9479 26.0886C37.9514 25.8819 37.9029 25.8689 37.8026 26.0496C37.2149 26.1238 36.6236 26.199 36.0287 26.2753C35.5272 26.2185 35.0363 26.113 34.5558 25.9585C34.5865 25.7529 34.6627 25.5655 34.7843 25.3966C36.2672 24.3961 37.8496 23.626 39.5313 23.0859C39.6084 23.1391 39.668 23.2071 39.7104 23.2897C42.8387 22.2259 45.9593 21.141 49.0721 20.0346C49.1491 20.0878 49.2088 20.1558 49.2511 20.2384C51.7647 19.5295 54.2709 18.7991 56.77 18.0472C56.847 18.1005 56.9067 18.1684 56.9491 18.251C59.1466 17.6756 61.3458 17.1225 63.5465 16.5918C63.6236 16.6451 63.6832 16.713 63.7256 16.7956C65.7677 16.4579 67.7825 16.0112 69.7703 15.4556C69.8473 15.5089 69.907 15.5768 69.9493 15.6594C70.6337 15.5537 71.3172 15.4253 71.9997 15.2741C72.0351 15.3355 72.0706 15.397 72.1061 15.4584C71.8627 15.7405 71.6749 16.0536 71.5428 16.3979Z" fill="white"/>
<path opacity="0.02" fill-rule="evenodd" clip-rule="evenodd" d="M71.543 16.3979C71.7107 16.5467 71.7107 16.5467 71.543 16.3979V16.3979Z" fill="white"/>
<path opacity="0.02" fill-rule="evenodd" clip-rule="evenodd" d="M66.668 24.1264C66.8357 24.2752 66.8357 24.2752 66.668 24.1264V24.1264Z" fill="white"/>
<path opacity="0.02" fill-rule="evenodd" clip-rule="evenodd" d="M56.2891 22.7474C56.3375 22.7603 56.386 22.7733 56.4344 22.7863C56.3814 22.8765 56.3329 22.8635 56.2891 22.7474Z" fill="white"/>
<path opacity="0.02" fill-rule="evenodd" clip-rule="evenodd" d="M60.4453 25.2626C60.6131 25.4114 60.6131 25.4114 60.4453 25.2626V25.2626Z" fill="white"/>
<path opacity="0.02" fill-rule="evenodd" clip-rule="evenodd" d="M60.2617 25.369C60.3101 25.382 60.3587 25.395 60.4071 25.4079C60.3541 25.4981 60.3055 25.4851 60.2617 25.369Z" fill="white"/>
<path opacity="0.02" fill-rule="evenodd" clip-rule="evenodd" d="M50.0664 23.8836C50.1148 23.8965 50.1633 23.9096 50.2117 23.9225C50.1588 24.0127 50.1102 23.9997 50.0664 23.8836Z" fill="white"/>
<path opacity="0.02" fill-rule="evenodd" clip-rule="evenodd" d="M63.8633 28.2034C64.031 28.3523 64.031 28.3523 63.8633 28.2034V28.2034Z" fill="white"/>
<path opacity="0.02" fill-rule="evenodd" clip-rule="evenodd" d="M44.0273 24.9134C44.0757 24.9264 44.1243 24.9394 44.1727 24.9523C44.1197 25.0425 44.0712 25.0295 44.0273 24.9134Z" fill="white"/>
<path opacity="0.02" fill-rule="evenodd" clip-rule="evenodd" d="M37.8047 26.0496C37.8531 26.0626 37.9016 26.0756 37.95 26.0886C37.897 26.1787 37.8485 26.1657 37.8047 26.0496Z" fill="white"/>
<path opacity="0.02" fill-rule="evenodd" clip-rule="evenodd" d="M60.5039 32.5996C60.6717 32.7485 60.6717 32.7485 60.5039 32.5996V32.5996Z" fill="white"/>
<path opacity="0.02" fill-rule="evenodd" clip-rule="evenodd" d="M50.4531 33.489C50.6209 33.6378 50.6209 33.6378 50.4531 33.489V33.489Z" fill="white"/>
<path opacity="0.02" fill-rule="evenodd" clip-rule="evenodd" d="M50.2695 33.5953C50.3179 33.6083 50.3665 33.6213 50.4149 33.6343C50.3619 33.7245 50.3133 33.7115 50.2695 33.5953Z" fill="white"/>
<path opacity="0.02" fill-rule="evenodd" clip-rule="evenodd" d="M56.2227 37.5278C56.3904 37.6766 56.3904 37.6766 56.2227 37.5278V37.5278Z" fill="white"/>
<path opacity="0.02" fill-rule="evenodd" clip-rule="evenodd" d="M41.3789 41.1833C41.5467 41.3322 41.5467 41.3322 41.3789 41.1833V41.1833Z" fill="white"/>
<path opacity="0.02" fill-rule="evenodd" clip-rule="evenodd" d="M41.1953 41.2897C41.2437 41.3027 41.2923 41.3157 41.3406 41.3287C41.2877 41.4189 41.2391 41.4058 41.1953 41.2897Z" fill="white"/>
<path opacity="0.02" fill-rule="evenodd" clip-rule="evenodd" d="M33.9688 47.9202C34.1365 48.0691 34.1365 48.0691 33.9688 47.9202V47.9202Z" fill="white"/>
<path opacity="0.02" fill-rule="evenodd" clip-rule="evenodd" d="M33.7852 48.0266C33.8336 48.0396 33.8821 48.0526 33.9305 48.0655C33.8775 48.1557 33.829 48.1427 33.7852 48.0266Z" fill="white"/>
<path opacity="0.02" fill-rule="evenodd" clip-rule="evenodd" d="M27.6602 54.0187C27.8279 54.1676 27.8279 54.1676 27.6602 54.0187V54.0187Z" fill="white"/>
<path opacity="0.02" fill-rule="evenodd" clip-rule="evenodd" d="M23.0117 59.1597C23.1795 59.3085 23.1795 59.3085 23.0117 59.1597V59.1597Z" fill="white"/>
<path opacity="0.02" fill-rule="evenodd" clip-rule="evenodd" d="M19.6523 63.5559C19.8201 63.7047 19.8201 63.7047 19.6523 63.5559V63.5559Z" fill="white"/>
</g>
<defs>
<clipPath id="clip0_94_3176">
<rect width="77.0368" height="77.0368" fill="white" transform="translate(19.9375) rotate(15)"/>
</clipPath>
</defs>
</svg>
