<svg width="55" height="55" viewBox="0 0 55 55" fill="none" xmlns="http://www.w3.org/2000/svg">
<rect width="55" height="55" rx="12" fill="#178A52"/>
<path d="M15 35.4705V22.475C15 20.5558 16.5873 19 18.5455 19H37.4545C39.4127 19 41 20.5558 41 22.475V35.4705C41 36.7421 40.2913 37.9123 39.1523 38.5212L29.6978 43.5757C28.6395 44.1414 27.3605 44.1414 26.3022 43.5757L16.8477 38.5212C15.7087 37.9123 15 36.7421 15 35.4705Z" fill="white"/>
<path d="M27.9562 6.05655C27.9469 5.99614 27.9469 5.98222 27.9562 6.02407C27.9655 5.98222 27.9655 5.99614 27.9562 6.05655Z" fill="white"/>
<path d="M31.5495 22.597C31.5495 23.5077 31.5122 24.3997 31.4425 25.2639L31.4379 25.2965C31.4193 25.5288 31.4008 25.7518 31.3775 25.9794C31.3124 26.6577 31.2242 27.3129 31.1266 27.9494C31.0849 28.1909 31.0477 28.4326 31.0012 28.6695C30.9873 28.7624 30.9687 28.8553 30.95 28.9483C30.9222 29.097 30.8943 29.2503 30.8618 29.3943C30.7642 29.9008 30.6573 30.384 30.5412 30.8486C30.4901 31.053 30.4391 31.2482 30.3833 31.4432C30.3414 31.6058 30.2997 31.7638 30.2532 31.9218C29.7421 33.7245 29.1613 35.1184 28.6828 35.9314C28.5061 36.2381 28.3436 36.4658 28.2042 36.5959C28.1577 36.6376 28.1113 36.6749 28.0741 36.6935C28.0462 36.7121 28.0229 36.7214 27.9997 36.7214C27.9858 36.7306 27.9719 36.7306 27.9579 36.7306C27.9486 36.7306 27.9393 36.7306 27.93 36.7214C27.93 36.7214 27.93 36.7214 27.9254 36.7214C27.8092 36.7074 27.6605 36.568 27.4886 36.3265C27.4375 36.2568 27.3865 36.1824 27.3353 36.0988C27.1123 35.7503 26.866 35.2625 26.6105 34.6538C26.6105 34.6492 26.6059 34.6492 26.6059 34.6492C26.2945 33.9059 25.9694 32.9859 25.6627 31.9219C25.607 31.7268 25.5512 31.5223 25.5001 31.3179C25.3236 30.6581 25.1609 29.9472 25.0123 29.1992C24.9984 29.1155 24.9844 29.0319 24.9658 28.9483C24.9472 28.8507 24.9333 28.7531 24.91 28.6556C24.8774 28.4605 24.845 28.2607 24.8125 28.0608C24.7242 27.5034 24.6451 26.9272 24.5802 26.3371C24.5663 26.2163 24.557 26.1002 24.543 25.9793C24.5198 25.7517 24.4965 25.5194 24.4779 25.2824C24.4082 24.4136 24.3711 23.5168 24.3711 22.5968C24.3711 22.2391 24.3804 21.8906 24.3943 21.5421C24.4129 21.1751 24.4361 20.8127 24.4686 20.4596C24.5476 19.5907 24.6684 18.7498 24.8171 17.9413C24.8636 17.6766 24.9146 17.4164 24.9704 17.1608C25.1237 16.4266 25.2957 15.7204 25.4815 15.0514C25.5977 14.6379 25.7138 14.2383 25.83 13.8526C25.9926 13.3136 26.1599 12.8025 26.3178 12.324C26.4015 12.0593 26.4897 11.8037 26.5687 11.562C26.6849 11.2275 26.7917 10.9116 26.8846 10.6189C26.9914 10.2937 27.0844 10.001 27.1587 9.73612C27.4607 8.67677 27.693 7.557 27.8278 6.82292C27.8975 6.44652 27.9439 6.16782 27.9579 6.05627C27.9671 6.11205 27.9811 6.20495 27.9997 6.32577C28.0044 6.3537 28.009 6.38155 28.0183 6.41412C28.0276 6.45124 28.0368 6.49774 28.0415 6.54414C28.0508 6.60464 28.0648 6.66961 28.0787 6.73939C28.0973 6.84621 28.1205 6.9624 28.1438 7.08787C28.1623 7.19469 28.1855 7.30159 28.2088 7.4177C28.3482 8.09136 28.534 8.9277 28.7617 9.73612C28.8035 9.88479 28.85 10.0427 28.9058 10.2101C28.929 10.2937 28.9569 10.3819 28.9894 10.4702C29.0033 10.5167 29.0172 10.5632 29.0358 10.6142C29.1287 10.9024 29.2309 11.2136 29.3424 11.5435L29.347 11.5481V11.5574C29.4307 11.799 29.5144 12.0592 29.6026 12.324C29.7606 12.798 29.9278 13.3091 30.0905 13.848V13.8526C30.2067 14.2429 30.3228 14.6378 30.439 15.0514C30.6202 15.7204 30.7967 16.4266 30.95 17.1608V17.1747C31.0058 17.4256 31.0569 17.6858 31.1034 17.9413C31.252 18.7497 31.3729 19.5907 31.4518 20.4595C31.4657 20.6407 31.4844 20.8172 31.4936 20.9985C31.5029 21.1518 31.5122 21.3098 31.5214 21.4631C31.5214 21.491 31.5261 21.5142 31.5261 21.542C31.5402 21.8908 31.5495 22.2393 31.5495 22.597Z" fill="white"/>
<path d="M27.8459 8.99764L26.0757 27.8333L25.8156 30.6163V30.6211L25.7273 31.5735L25.6901 31.9638L25.6623 31.922L24.7237 30.4491L23.8177 29.0367L24.8678 28.9577L24.9653 28.9484L25.0536 28.9437L24.9095 28.6557L24.7097 28.2515L23.3438 25.4777L23.9942 25.7518L24.5425 25.9795L24.6726 26.0353L24.4774 25.2825L23.3438 20.8454L24.3938 21.5424L24.7377 21.77L24.4682 20.4598L23.8502 17.4444L24.8166 17.9416L25.0536 18.0623L24.9699 17.161L24.7377 14.7218L25.481 15.0516L25.941 15.256L25.8295 13.8529L25.6855 12.0037L26.3174 12.3243L26.4707 12.4033L26.5682 11.5624L26.6983 10.4566L26.8842 10.6192L27.2698 10.9537L27.4928 8.75598L27.8459 8.99764Z" fill="white"/>
<path d="M27.9978 8.99764L29.768 27.8333L30.0282 30.6163V30.6211L30.1164 31.5735L30.1536 31.9638L30.1815 31.922L31.12 30.4491L32.0261 29.0367L30.976 28.9577L30.8784 28.9484L30.7902 28.9437L30.9342 28.6557L31.134 28.2515L32.5 25.4777L31.8495 25.7518L31.3013 25.9795L31.1711 26.0353L31.3663 25.2825L32.5 20.8454L31.4499 21.5424L31.1061 21.77L31.3756 20.4598L31.9936 17.4444L31.0271 17.9416L30.7902 18.0623L30.8738 17.161L31.1061 14.7218L30.3627 15.0516L29.9027 15.256L30.0143 13.8529L30.1583 12.0037L29.5264 12.3243L29.3731 12.4033L29.2755 11.5624L29.1454 10.4566L28.9595 10.6192L28.5739 10.9537L28.3509 8.75598L27.9978 8.99764Z" fill="white"/>
<path d="M48.8343 41.3331C48.8912 41.3553 48.9033 41.3622 48.8624 41.3493C48.894 41.3783 48.8819 41.3713 48.8343 41.3331Z" fill="white"/>
<path d="M32.715 36.1731C31.9264 35.7177 31.1724 35.2395 30.4589 34.747L30.433 34.7267C30.2411 34.5945 30.0573 34.4669 29.8718 34.333C29.3169 33.9375 28.7936 33.5334 28.2912 33.1307C28.1028 32.9738 27.9122 32.8207 27.7302 32.662C27.6567 32.6035 27.5856 32.541 27.5144 32.4783C27.3995 32.3799 27.2807 32.279 27.1722 32.1789C26.7824 31.8412 26.4174 31.507 26.0731 31.1742C25.9216 31.0277 25.7781 30.8859 25.6371 30.74C25.5172 30.6225 25.4013 30.5073 25.2876 30.3881C23.982 29.0441 23.0653 27.8442 22.6004 27.0232C22.4231 26.7169 22.3073 26.4623 22.2643 26.2765C22.2514 26.2154 22.2423 26.1566 22.2448 26.115C22.2426 26.0817 22.2463 26.0568 22.2579 26.0367C22.2568 26.0201 22.2637 26.008 22.2707 25.9959C22.2754 25.9878 22.28 25.9798 22.2927 25.9764C22.2927 25.9764 22.2927 25.9764 22.295 25.9724C22.3652 25.8787 22.5602 25.8197 22.8554 25.7916C22.9413 25.7822 23.0312 25.7751 23.1292 25.7726C23.5425 25.7537 24.0881 25.7844 24.743 25.8675C24.747 25.8697 24.7493 25.8657 24.7493 25.8657C25.5487 25.9678 26.508 26.1461 27.5828 26.4126C27.7797 26.4619 27.9846 26.5158 28.1872 26.5738C28.8468 26.7508 29.5438 26.9654 30.266 27.2106C30.3454 27.2404 30.4247 27.2701 30.5065 27.2958C30.6003 27.3285 30.6917 27.3653 30.7879 27.3939C30.9731 27.4632 31.1624 27.535 31.3517 27.6068C31.8786 27.8091 32.4171 28.0287 32.9607 28.2675C33.0723 28.3158 33.1774 28.3658 33.2891 28.4141C33.4978 28.5079 33.7107 28.6038 33.9252 28.7063C34.7125 29.0803 35.5076 29.4965 36.3044 29.9565C36.6142 30.1354 36.9113 30.3177 37.2062 30.504C37.5147 30.7036 37.817 30.9049 38.1065 31.1096C38.8195 31.6124 39.4874 32.1376 40.1131 32.6705C40.3192 32.8432 40.519 33.0175 40.7125 33.1936C41.2716 33.6934 41.7972 34.1955 42.2837 34.6909C42.5837 34.9982 42.8717 35.2986 43.1476 35.5921C43.5331 36.0024 43.8921 36.4028 44.2275 36.7789C44.415 36.9837 44.5922 37.1879 44.762 37.3771C44.9936 37.645 45.2138 37.8955 45.4208 38.1223C45.649 38.3774 45.856 38.6042 46.0482 38.8011C46.8147 39.5923 47.6683 40.3533 48.2366 40.837C48.5278 41.0856 48.7459 41.2652 48.8355 41.333C48.7826 41.3132 48.6952 41.2788 48.5812 41.2345C48.5547 41.2246 48.5283 41.2147 48.4954 41.2064C48.4586 41.1959 48.4137 41.1807 48.3712 41.1615C48.3142 41.1393 48.2509 41.119 48.1835 41.0961C48.0817 41.0588 47.9695 41.0209 47.8492 40.9782C47.7474 40.9409 47.6432 40.9075 47.531 40.8697C46.8779 40.6535 46.0607 40.3963 45.2468 40.1893C45.0971 40.1511 44.9371 40.1124 44.7643 40.077C44.6803 40.0553 44.5899 40.0354 44.4972 40.0194C44.45 40.0082 44.4027 39.997 44.3493 39.9876C44.0533 39.9239 43.7326 39.8569 43.3912 39.7885L43.3849 39.7902L43.3768 39.7855C43.1257 39.7371 42.8586 39.6796 42.5851 39.6236C42.0957 39.5234 41.5695 39.4127 41.0214 39.2841L41.0174 39.2818C40.6213 39.1873 40.2212 39.0903 39.805 38.9842C39.135 38.8067 38.4351 38.6064 37.7227 38.3721L37.7106 38.3651C37.4654 38.288 37.2146 38.2021 36.9701 38.1146C36.1956 37.8392 35.4069 37.5233 34.615 37.1573C34.4511 37.0787 34.2889 37.0066 34.1273 36.924C33.9899 36.8553 33.8484 36.7845 33.7111 36.7158C33.6869 36.7018 33.6645 36.6942 33.6403 36.6803C33.3313 36.5182 33.0249 36.352 32.715 36.1731Z" fill="white"/>
<path d="M46.3443 39.7655L30.9172 28.8146L28.6372 27.1978L28.6331 27.1954L27.8524 26.6428L27.5329 26.4154L27.5831 26.4122L29.3279 26.3358L31.0041 26.2574L30.5474 27.2063L30.5068 27.2954L30.4667 27.3742L30.7882 27.3935L31.2381 27.4225L34.3233 27.6264L33.7606 28.0527L33.2893 28.4137L33.176 28.4985L33.9254 28.7058L38.3349 29.9426L37.2063 30.5035L36.8373 30.6874L38.1067 31.1092L41.0271 32.0817L40.1133 32.6701L39.8903 32.8149L40.7126 33.1931L42.9412 34.2116L42.2839 34.6904L41.8768 34.9866L43.1477 35.5915L44.8212 36.3914L44.2276 36.7784L44.0825 36.8716L44.7621 37.3766L45.6546 38.0421L45.4209 38.1218L44.9383 38.2885L46.7302 39.5805L46.3443 39.7655Z" fill="white"/>
<path d="M46.2684 39.897L29.0711 32.0123L26.5309 30.846L26.5268 30.8437L25.6578 30.4439L25.3011 30.2809L25.3235 30.326L26.1298 31.8752L26.8999 33.3661L27.4933 32.4962L27.5502 32.4164L27.5984 32.3423L27.7758 32.611L28.0259 32.9861L29.7451 35.556L29.8329 34.8556L29.9099 34.267L29.9267 34.1264L30.481 34.6718L33.7568 37.8722L33.6783 36.6143L33.653 36.2027L34.653 37.0912L36.9554 39.1341L37.008 38.0485L37.0219 37.783L37.7607 38.306L39.757 39.7268L39.843 38.9181L39.896 38.4175L41.0553 39.2157L42.5848 40.265L42.6231 39.5575L42.6313 39.3852L43.4084 39.7212L44.4311 40.1614L44.3832 39.9191L44.2863 39.4179L46.3011 40.3237L46.2684 39.897Z" fill="white"/>
<path d="M7.35714 41.3331C7.30018 41.3553 7.28813 41.3622 7.32901 41.3493C7.29741 41.3783 7.30946 41.3713 7.35714 41.3331Z" fill="white"/>
<path d="M23.4764 36.1731C24.265 35.7177 25.019 35.2395 25.7325 34.747L25.7584 34.7267C25.9503 34.5945 26.1341 34.4669 26.3197 34.333C26.8746 33.9375 27.3978 33.5334 27.9002 33.1307C28.0886 32.9738 28.2792 32.8207 28.4612 32.662C28.5347 32.6035 28.6059 32.541 28.6771 32.4783C28.7919 32.3799 28.9107 32.279 29.0192 32.1789C29.409 31.8412 29.774 31.507 30.1183 31.1742C30.2698 31.0277 30.4133 30.8859 30.5544 30.74C30.6742 30.6225 30.7901 30.5073 30.9038 30.3881C32.2094 29.0441 33.1261 27.8442 33.591 27.0232C33.7683 26.7169 33.8841 26.4623 33.9271 26.2765C33.94 26.2154 33.9491 26.1566 33.9466 26.115C33.9488 26.0817 33.9452 26.0568 33.9335 26.0367C33.9346 26.0201 33.9277 26.008 33.9207 25.9959C33.916 25.9878 33.9114 25.9798 33.8987 25.9764C33.8987 25.9764 33.8987 25.9764 33.8964 25.9724C33.8262 25.8787 33.6312 25.8197 33.336 25.7916C33.2501 25.7822 33.1602 25.7751 33.0622 25.7726C32.6489 25.7537 32.1033 25.7844 31.4484 25.8675C31.4444 25.8697 31.4421 25.8657 31.4421 25.8657C30.6427 25.9678 29.6834 26.1461 28.6086 26.4126C28.4117 26.4619 28.2068 26.5158 28.0042 26.5738C27.3446 26.7508 26.6476 26.9654 25.9254 27.2106C25.846 27.2404 25.7667 27.2701 25.6849 27.2958C25.5911 27.3285 25.4997 27.3653 25.4035 27.3939C25.2183 27.4632 25.029 27.535 24.8397 27.6068C24.3128 27.8091 23.7743 28.0287 23.2307 28.2675C23.1191 28.3158 23.014 28.3658 22.9023 28.4141C22.6936 28.5079 22.4808 28.6038 22.2662 28.7063C21.4789 29.0803 20.6838 29.4965 19.887 29.9565C19.5772 30.1354 19.2801 30.3177 18.9852 30.504C18.6767 30.7036 18.3744 30.9049 18.0849 31.1096C17.372 31.6124 16.7041 32.1376 16.0783 32.6705C15.8722 32.8432 15.6724 33.0175 15.4789 33.1936C14.9198 33.6934 14.3942 34.1955 13.9077 34.6909C13.6077 34.9982 13.3197 35.2986 13.0438 35.5921C12.6583 36.0024 12.2993 36.4028 11.9639 36.7789C11.7764 36.9837 11.5992 37.1879 11.4294 37.3771C11.1978 37.645 10.9776 37.8955 10.7706 38.1223C10.5424 38.3774 10.3354 38.6042 10.1432 38.8011C9.37673 39.5923 8.52312 40.3533 7.95477 40.837C7.66364 41.0856 7.44553 41.2652 7.35589 41.333C7.40883 41.3132 7.49624 41.2788 7.61021 41.2345C7.63672 41.2246 7.66315 41.2147 7.696 41.2064C7.73279 41.1959 7.77769 41.1807 7.8202 41.1615C7.87724 41.1393 7.9405 41.119 8.0079 41.0961C8.10969 41.0588 8.22195 41.0209 8.34222 40.9782C8.44401 40.9409 8.54819 40.9075 8.66038 40.8697C9.31349 40.6535 10.1307 40.3963 10.9447 40.1893C11.0943 40.1511 11.2543 40.1124 11.4271 40.077C11.5111 40.0553 11.6015 40.0354 11.6942 40.0194C11.7414 40.0082 11.7887 39.997 11.8421 39.9876C12.1381 39.9239 12.4588 39.8569 12.8002 39.7885L12.8065 39.7902L12.8146 39.7855C13.0657 39.7371 13.3328 39.6796 13.6063 39.6236C14.0957 39.5234 14.622 39.4127 15.17 39.2841L15.174 39.2818C15.5701 39.1873 15.9702 39.0903 16.3864 38.9842C17.0564 38.8067 17.7563 38.6064 18.4688 38.3721L18.4808 38.3651C18.726 38.288 18.9768 38.2021 19.2213 38.1146C19.9958 37.8392 20.7845 37.5233 21.5764 37.1573C21.7403 37.0787 21.9025 37.0066 22.0641 36.924C22.2015 36.8553 22.343 36.7845 22.4803 36.7158C22.5045 36.7018 22.5269 36.6942 22.5511 36.6803C22.8601 36.5182 23.1665 36.352 23.4764 36.1731Z" fill="white"/>
<path d="M9.84709 39.7655L25.2742 28.8146L27.5542 27.1978L27.5583 27.1954L28.3391 26.6428L28.6585 26.4154L28.6083 26.4122L26.8635 26.3358L25.1873 26.2574L25.644 27.2063L25.6846 27.2954L25.7247 27.3742L25.4032 27.3935L24.9533 27.4225L21.8682 27.6264L22.4308 28.0527L22.9021 28.4137L23.0154 28.4985L22.266 28.7058L17.8565 29.9426L18.9851 30.5035L19.3542 30.6874L18.0847 31.1092L15.1644 32.0817L16.0781 32.6701L16.3012 32.8149L15.4788 33.1931L13.2502 34.2116L13.9075 34.6904L14.3146 34.9866L13.0437 35.5915L11.3702 36.3914L11.9638 36.7784L12.1089 36.8716L11.4293 37.3766L10.5368 38.0421L10.7705 38.1218L11.2531 38.2885L9.46125 39.5805L9.84709 39.7655Z" fill="white"/>
<path d="M9.92303 39.897L27.1203 32.0123L29.6606 30.846L29.6646 30.8437L30.5336 30.4439L30.8903 30.2809L30.8679 30.326L30.0616 31.8752L29.2915 33.3661L28.6981 32.4962L28.6412 32.4164L28.593 32.3423L28.4156 32.611L28.1655 32.9861L26.4463 35.556L26.3585 34.8556L26.2815 34.267L26.2647 34.1264L25.7104 34.6718L22.4346 37.8722L22.5131 36.6143L22.5384 36.2027L21.5385 37.0912L19.2361 39.1341L19.1834 38.0485L19.1695 37.783L18.4307 38.306L16.4344 39.7268L16.3484 38.9181L16.2954 38.4175L15.1361 39.2157L13.6066 40.265L13.5683 39.5575L13.5601 39.3852L12.783 39.7212L11.7603 40.1614L11.8082 39.9191L11.9051 39.4179L9.89031 40.3237L9.92303 39.897Z" fill="white"/>
<path d="M24.2287 34V25.6H28.5247C29.6287 25.6 30.4527 25.804 30.9967 26.212C31.5407 26.612 31.8127 27.14 31.8127 27.796C31.8127 28.228 31.6967 28.608 31.4647 28.936C31.2407 29.256 30.9207 29.512 30.5047 29.704C30.0967 29.888 29.6087 29.98 29.0407 29.98L29.2807 29.404C29.8727 29.404 30.3887 29.496 30.8287 29.68C31.2687 29.856 31.6087 30.116 31.8487 30.46C32.0967 30.796 32.2207 31.208 32.2207 31.696C32.2207 32.424 31.9247 32.992 31.3327 33.4C30.7487 33.8 29.8927 34 28.7647 34H24.2287ZM26.5807 32.284H28.5727C28.9807 32.284 29.2887 32.216 29.4967 32.08C29.7127 31.936 29.8207 31.72 29.8207 31.432C29.8207 31.144 29.7127 30.932 29.4967 30.796C29.2887 30.652 28.9807 30.58 28.5727 30.58H26.4127V28.936H28.2127C28.6127 28.936 28.9127 28.868 29.1127 28.732C29.3127 28.596 29.4127 28.392 29.4127 28.12C29.4127 27.848 29.3127 27.648 29.1127 27.52C28.9127 27.384 28.6127 27.316 28.2127 27.316H26.5807V32.284Z" fill="#177547"/>
</svg>
