<svg width="58" height="35" viewBox="0 0 58 35" fill="none" xmlns="http://www.w3.org/2000/svg">
<rect width="58" height="35" rx="5" fill="#1B3771"/>
<path fill-rule="evenodd" clip-rule="evenodd" d="M28.8705 26.0681C30.9164 27.9329 33.6676 29.0692 36.6462 29.0692C43.0576 29.0692 48.2412 23.8854 48.2412 17.4738C48.2412 11.0853 43.0579 5.87878 36.6462 5.87878C33.6676 5.87878 30.9167 7.01562 28.8705 8.87988C26.5285 11.0168 25.0508 14.0635 25.0508 17.4738C25.0508 20.8848 26.5285 23.9539 28.8705 26.0681Z" fill="#E9B040"/>
<path fill-rule="evenodd" clip-rule="evenodd" d="M46.6953 23.9314C46.6953 23.7268 46.8541 23.5676 47.0818 23.5676C47.2864 23.5676 47.4457 23.7268 47.4457 23.9314C47.4457 24.136 47.2864 24.3179 47.0818 24.3179C47.031 24.3184 46.9805 24.3086 46.9334 24.2894C46.8864 24.2701 46.8436 24.2416 46.8076 24.2057C46.7716 24.1697 46.7432 24.1269 46.7239 24.0798C46.7046 24.0327 46.6949 23.9823 46.6953 23.9314ZM47.0818 24.2267C47.2179 24.2267 47.3547 24.0907 47.3547 23.9312C47.3547 23.7717 47.2181 23.6583 47.0818 23.6583C46.9226 23.6583 46.7863 23.7719 46.7863 23.9312C46.7863 24.0904 46.9226 24.2267 47.0818 24.2267ZM47.0136 24.1133H46.9453V23.7722H47.0818C47.1045 23.7722 47.1501 23.7722 47.1728 23.7949C47.1955 23.818 47.2181 23.8405 47.2181 23.8631C47.2181 23.9087 47.1955 23.9541 47.1504 23.9541L47.2181 24.1133H47.1272L47.0818 23.9768H47.0136V24.1133ZM47.0136 23.9087H47.1045C47.1272 23.9087 47.1272 23.8856 47.1272 23.8631C47.1272 23.8631 47.1272 23.8405 47.1045 23.8405H47.0136V23.9087Z" fill="#E9B040"/>
<path fill-rule="evenodd" clip-rule="evenodd" d="M32.6224 16.2464C32.5763 15.8338 32.508 15.424 32.4178 15.0188H25.3244C25.4168 14.6039 25.5307 14.1941 25.6655 13.791H32.0769C31.9375 13.3743 31.7782 12.9646 31.5994 12.5632H26.1427C26.3526 12.1445 26.5801 11.7348 26.8248 11.3354H30.9171C30.6631 10.8979 30.3661 10.4867 30.0307 10.1079H27.7114C28.0526 9.67576 28.4618 9.26657 28.871 8.88031C26.8248 7.01581 24.0963 5.8792 21.0952 5.8792C14.6838 5.8792 9.5 11.0857 9.5 17.4742C9.5 23.8856 14.6838 29.0696 21.0952 29.0696C24.0963 29.0696 26.8245 27.933 28.871 26.0685C29.2799 25.682 29.6896 25.2731 30.0532 24.841H27.7112C27.3903 24.4507 27.0942 24.0407 26.8245 23.6134H30.9171C31.1712 23.2195 31.3992 22.8092 31.5994 22.3854H26.1427C25.9563 21.9873 25.7968 21.5772 25.6653 21.1578H32.0767C32.2112 20.7546 32.3251 20.3447 32.4178 19.9298C32.5088 19.5208 32.5766 19.1112 32.6224 18.7022C32.7134 17.8861 32.7134 17.0625 32.6224 16.2464Z" fill="#CC2131"/>
<path fill-rule="evenodd" clip-rule="evenodd" d="M46.6953 20.1572C46.6953 19.9526 46.8541 19.7934 47.0818 19.7934C47.2864 19.7934 47.4457 19.9526 47.4457 20.1572C47.4457 20.3618 47.2864 20.5437 47.0818 20.5437C47.031 20.5442 46.9805 20.5345 46.9334 20.5152C46.8863 20.496 46.8435 20.4675 46.8075 20.4315C46.7715 20.3955 46.7431 20.3528 46.7238 20.3057C46.7046 20.2586 46.6949 20.2081 46.6953 20.1572ZM47.0818 20.4528C47.2179 20.4528 47.3547 20.3162 47.3547 20.1572C47.3547 19.998 47.2182 19.8843 47.0818 19.8843C46.9226 19.8843 46.7863 19.998 46.7863 20.1572C46.7863 20.316 46.9226 20.4528 47.0818 20.4528ZM47.0136 20.3391H46.9453V19.998H47.0818C47.1045 19.998 47.1501 19.998 47.1728 20.0207C47.1955 20.0438 47.2182 20.0663 47.2182 20.0889C47.2182 20.1345 47.1955 20.1799 47.1504 20.1799L47.2182 20.3391H47.1272L47.0818 20.2026H47.0136V20.3391ZM47.0136 20.1348H47.1045C47.1272 20.1348 47.1272 20.1116 47.1272 20.0892C47.1272 20.0892 47.1272 20.0665 47.1045 20.0665H47.0136V20.1348Z" fill="white"/>
<path fill-rule="evenodd" clip-rule="evenodd" d="M24.9373 20.8168C24.5508 20.9304 24.2779 20.976 23.9823 20.976C23.3912 20.976 23.0274 20.6122 23.0274 19.9299C23.0274 19.7938 23.0501 19.657 23.0728 19.4983L23.1408 19.0435L23.2091 18.6565L23.7548 15.3828H24.9597L24.8234 16.1102H25.5737L25.3918 17.3153H24.6417L24.3006 19.2705C24.3006 19.3388 24.2779 19.4066 24.2779 19.4524C24.2779 19.7026 24.4142 19.8162 24.71 19.8162C24.8692 19.8162 24.9602 19.7936 25.0965 19.7706L24.9373 20.8168ZM28.825 20.7709C28.4061 20.9055 27.9689 20.9747 27.5289 20.976C26.1875 20.976 25.3918 20.2484 25.3918 18.8386C25.3918 17.2019 26.3241 15.9741 27.5972 15.9741C28.6204 15.9741 29.2796 16.6562 29.2796 17.7247C29.2796 18.0659 29.2342 18.407 29.1208 18.9069H26.6196V19.0435C26.6196 19.6117 26.9834 19.8845 27.7109 19.8845C28.1656 19.8845 28.5748 19.7936 29.0296 19.589L28.825 20.7709ZM28.0747 17.9291V17.702C28.0747 17.3155 27.8474 17.0883 27.4836 17.0883C27.0744 17.0883 26.8015 17.3838 26.6879 17.9293L28.0747 17.9291ZM15.32 20.8851H14.0695L14.7971 16.3606L13.1828 20.8851H12.3191L12.2281 16.3833L11.4549 20.8851H10.25L11.2276 14.9962H13.0236L13.0921 18.634L14.297 14.9962H16.2978L15.32 20.8851ZM18.344 18.7477C18.2077 18.7477 18.1847 18.725 18.0938 18.725C17.389 18.725 17.0252 18.9979 17.0252 19.4527C17.0252 19.7706 17.2069 19.953 17.4798 19.953C18.0938 19.953 18.3211 19.4524 18.344 18.7477ZM19.3443 20.8851H18.253L18.2757 20.3847C18.0028 20.7712 17.639 20.976 16.9569 20.976C16.3432 20.976 15.843 20.4303 15.843 19.657C15.843 19.43 15.8884 19.2254 15.9337 19.0435C16.1383 18.2929 16.8887 17.8381 18.0255 17.8154C18.1618 17.8154 18.3893 17.8154 18.571 17.8381C18.6164 17.6794 18.6164 17.6111 18.6164 17.5201C18.6164 17.2019 18.3664 17.1109 17.7753 17.1109C17.4115 17.1109 17.0252 17.1792 16.7294 17.2473L16.5704 17.3155H16.4795L16.6614 16.247C17.2525 16.0651 17.6617 15.9968 18.1165 15.9968C19.2077 15.9968 19.7761 16.4742 19.7761 17.4065C19.7761 17.6335 19.7988 17.8154 19.7078 18.3385L19.4579 20.0438L19.4125 20.3393L19.3672 20.589V20.7483L19.3443 20.8851ZM34.8728 16.156C35.2135 16.156 35.532 16.2467 35.9867 16.4742L36.1913 15.1782C36.0777 15.1328 36.0548 15.1328 35.8958 15.0645L35.3727 14.9509C35.2135 14.9055 35.0316 14.8829 34.8045 14.8829C34.1905 14.8829 33.8267 14.8829 33.4404 15.1328C33.2358 15.2464 32.9856 15.4284 32.6903 15.7468L32.5538 15.7012L31.2579 16.6108L31.3262 16.1107H29.9845L29.2344 20.8853H30.4852L30.94 18.3163C30.94 18.3163 31.1219 17.9525 31.2128 17.8386C31.4399 17.543 31.6444 17.543 31.8946 17.543H31.9856C31.9629 17.8159 31.94 18.1344 31.94 18.4526C31.94 20.0213 32.8269 20.9992 34.191 20.9992C34.5322 20.9992 34.8277 20.9536 35.2822 20.8173L35.5093 19.4756C35.1003 19.6807 34.7592 19.7711 34.441 19.7711C33.7133 19.7711 33.2812 19.2485 33.2812 18.339C33.2812 17.0653 33.9177 16.156 34.8728 16.156ZM45.4899 14.9962L45.2171 16.6788C44.9215 16.224 44.5579 16.0195 44.0805 16.0195C43.4213 16.0195 42.8073 16.3833 42.4208 17.088L41.6249 16.6106L41.6932 16.1104H40.3515L39.5787 20.8851H40.8519L41.2608 18.3161C41.2608 18.3161 41.5793 17.9522 41.6702 17.8384C41.8521 17.6113 42.0567 17.5428 42.216 17.5428C42.065 17.9975 41.9882 18.4736 41.9885 18.9528C41.9885 20.1576 42.6252 20.9531 43.5345 20.9531C43.9893 20.9531 44.3531 20.7943 44.6943 20.4078L44.626 20.8853H45.8309L46.786 14.9965L45.4899 14.9962ZM43.9671 19.748C43.535 19.748 43.3304 19.4524 43.3304 18.816C43.3304 17.884 43.7169 17.2019 44.3077 17.2019C44.7399 17.2019 44.9674 17.5428 44.9674 18.1568C44.9674 19.0888 44.5579 19.748 43.9671 19.748ZM38.1692 18.7477C38.0332 18.7477 38.0105 18.725 37.9195 18.725C37.2145 18.725 36.8507 18.9979 36.8507 19.4527C36.8507 19.7706 37.0326 19.953 37.3055 19.953C37.9193 19.953 38.1466 19.4524 38.1692 18.7477ZM39.1695 20.8851H38.0788L38.1014 20.3847C37.8286 20.7712 37.4647 20.976 36.7824 20.976C36.1689 20.976 35.6232 20.4529 35.6232 19.657C35.6458 18.5204 36.4869 17.8154 37.851 17.8154C37.9876 17.8154 38.2148 17.8154 38.3967 17.8381C38.4423 17.6794 38.4423 17.6111 38.4423 17.5201C38.4423 17.2019 38.1922 17.1109 37.6008 17.1109C37.237 17.1109 36.828 17.1792 36.5552 17.2473L36.3733 17.3155H36.305L36.4869 16.247C37.0782 16.0651 37.4872 15.9968 37.942 15.9968C39.0332 15.9968 39.6016 16.4742 39.6016 17.4065C39.6016 17.6335 39.6243 17.8154 39.5333 18.3385L39.2836 20.0438L39.238 20.3393L39.1927 20.589L39.1695 20.7483V20.8851ZM21.9589 17.1336C22.209 17.1336 22.55 17.1563 22.9138 17.2019L23.0957 16.0877C22.7319 16.0424 22.2546 15.9968 21.9591 15.9968C20.5721 15.9968 20.0948 16.7471 20.0948 17.6338C20.0948 18.2019 20.3675 18.634 21.0268 18.9296C21.5497 19.1798 21.6406 19.2256 21.6406 19.43C21.6406 19.7255 21.3678 19.9074 20.8676 19.9074C20.504 19.9074 20.1629 19.8392 19.7534 19.7255L19.6171 20.8168H19.64L19.8673 20.8624C19.9354 20.8851 20.0492 20.9077 20.1856 20.9077C20.5038 20.9531 20.7537 20.9531 20.913 20.9531C22.3 20.9531 22.8911 20.4305 22.8911 19.3617C22.8911 18.7026 22.5729 18.3161 21.9362 18.0432C21.4134 17.793 21.3451 17.7703 21.3451 17.5428C21.3451 17.3155 21.5723 17.1336 21.9589 17.1336Z" fill="#1B3771"/>
<path fill-rule="evenodd" clip-rule="evenodd" d="M36.5319 14.8144L36.3269 16.0875C35.8721 15.8603 35.5541 15.7693 35.2129 15.7693C34.2583 15.7693 33.5991 16.6789 33.5991 17.9747C33.5991 18.8616 34.0539 19.4069 34.7808 19.4069C35.0993 19.4069 35.4405 19.3164 35.8496 19.1113L35.6226 20.453C35.1678 20.5666 34.8725 20.6122 34.5087 20.6122C33.167 20.6122 32.326 19.657 32.326 18.0883C32.326 15.9739 33.4852 14.5191 35.1449 14.5191C35.3724 14.5191 35.5543 14.5417 35.7136 14.5644L36.2362 14.7007C36.3954 14.7688 36.4181 14.7688 36.5319 14.8144ZM32.5079 15.701C32.4623 15.6783 32.4169 15.6783 32.3713 15.6783C31.9624 15.6783 31.7346 15.8829 31.3484 16.4513L31.462 15.7237H30.3027L29.5521 20.521H30.8029C31.2576 17.5882 31.371 17.0878 31.9851 17.0878H32.076C32.1896 16.5194 32.3262 16.0875 32.5535 15.7008L32.5079 15.701ZM25.255 20.4527C24.9138 20.5664 24.6412 20.612 24.3454 20.612C23.7087 20.612 23.3451 20.2481 23.3451 19.5658C23.3451 19.4298 23.3678 19.293 23.3905 19.1342L23.4585 18.6565L23.5268 18.2927L24.0725 15.019H25.323L25.1867 15.7237H25.8234L25.6415 16.9059H25.005L24.6639 18.884C24.6639 18.975 24.6412 19.0433 24.6412 19.0886C24.6412 19.3388 24.7775 19.4525 25.0733 19.4525C25.2325 19.4525 25.3235 19.4298 25.4144 19.4069L25.255 20.4527ZM20.4123 17.247C20.4123 17.8379 20.7078 18.27 21.3672 18.5656C21.89 18.8158 21.9583 18.884 21.9583 19.1113C21.9583 19.4069 21.731 19.5434 21.2307 19.5434C20.8668 19.5434 20.5259 19.4751 20.1165 19.3388L19.9346 20.4527H20.0028L20.2304 20.4983C20.3335 20.5296 20.4408 20.5449 20.5486 20.5437C20.8441 20.5664 21.0943 20.5891 21.2533 20.5891C22.5721 20.5891 23.1859 20.0891 23.1859 18.9977C23.1859 18.3385 22.9359 17.952 22.2992 17.656C21.7762 17.429 21.7081 17.3607 21.7081 17.1561C21.7081 16.8832 21.9127 16.7469 22.3219 16.7469C22.5721 16.7469 22.913 16.7923 23.2312 16.8379L23.4131 15.7237C23.0949 15.6783 22.5945 15.6327 22.2992 15.6327C20.8897 15.6327 20.4123 16.3604 20.4123 17.247ZM46.1493 20.521H44.9444L45.0122 20.0436C44.671 20.4074 44.3072 20.5661 43.8524 20.5661C42.9433 20.5661 42.3296 19.7934 42.3296 18.5885C42.3296 16.9969 43.2616 15.6554 44.3755 15.6554C44.8759 15.6554 45.2397 15.86 45.5804 16.3148L45.8532 14.6322H47.104L46.1493 20.521ZM44.2845 19.3839C44.8759 19.3839 45.2848 18.7248 45.2848 17.7701C45.2848 17.1788 45.0578 16.8379 44.6257 16.8379C44.0575 16.8379 43.6478 17.497 43.6478 18.4519C43.6478 19.0659 43.8524 19.3839 44.2845 19.3839ZM29.0971 20.4074C28.6652 20.5435 28.2561 20.612 27.8013 20.612C26.3916 20.612 25.6641 19.8614 25.6641 18.4746C25.6641 16.8152 26.5964 15.6101 27.8696 15.6101C28.8928 15.6101 29.5519 16.2921 29.5519 17.3607C29.5519 17.7018 29.5065 18.043 29.4158 18.5429H26.9149C26.8919 18.6112 26.8919 18.6338 26.8919 18.6794C26.8919 19.2252 27.2558 19.5205 28.0061 19.5205C28.4382 19.5205 28.8474 19.4295 29.3022 19.2249L29.0971 20.4074ZM28.3926 17.565V17.3151C28.3926 16.9286 28.1878 16.7013 27.8015 16.7013C27.4152 16.7013 27.1195 17.0195 27.0058 17.565H28.3926ZM15.6379 20.521H14.3874L15.1148 15.9966L13.5005 20.521H12.6368L12.5458 16.0192L11.7728 20.521H10.6133L11.5909 14.6322H13.3869L13.4551 18.27L14.6603 14.6322H16.6155L15.6379 20.521ZM18.7526 18.3836C18.6161 18.361 18.548 18.361 18.4571 18.361C17.7523 18.361 17.3885 18.6112 17.3885 19.0886C17.3885 19.3842 17.5702 19.589 17.843 19.589C18.3661 19.589 18.7299 19.0886 18.7526 18.3836ZM19.6619 20.521H18.6161L18.639 20.0206C18.3207 20.4076 17.9113 20.5888 17.3202 20.5888C16.6382 20.5888 16.1834 20.0662 16.1834 19.293C16.1834 18.1337 16.9793 17.4514 18.3888 17.4514C18.5251 17.4514 18.707 17.4514 18.8889 17.4741C18.9343 17.3378 18.9343 17.2697 18.9343 17.1788C18.9343 16.8605 18.7297 16.7467 18.1386 16.7467C17.7748 16.7467 17.3656 16.792 17.0927 16.883L16.9108 16.9283L16.7972 16.951L16.9791 15.8824C17.6155 15.7005 18.0247 15.6323 18.4795 15.6323C19.5707 15.6323 20.1392 16.1097 20.1392 17.0193C20.1392 17.2695 20.1162 17.4512 20.0253 17.9742L19.7753 19.6795L19.73 19.975L19.7071 20.2247L19.6844 20.384L19.6619 20.521ZM38.5781 18.3836C38.442 18.361 38.3735 18.361 38.2826 18.361C37.5776 18.361 37.2138 18.6112 37.2138 19.0886C37.2138 19.3842 37.3957 19.589 37.6685 19.589C38.1687 19.589 38.5554 19.0886 38.5781 18.3836ZM39.4874 20.521H38.4418L38.4645 20.0206C38.146 20.4076 37.7144 20.5888 37.1455 20.5888C36.4637 20.5888 35.9862 20.0662 35.9862 19.293C35.9862 18.1337 36.8048 17.4514 38.214 17.4514C38.3501 17.4514 38.5325 17.4514 38.714 17.4741C38.7596 17.3378 38.7595 17.2697 38.7595 17.1788C38.7595 16.8605 38.555 16.7467 37.9636 16.7467C37.5998 16.7467 37.1908 16.792 36.918 16.883L36.7361 16.9283L36.6224 16.951L36.8043 15.8824C37.4406 15.7005 37.85 15.6323 38.3048 15.6323C39.396 15.6323 39.9644 16.1097 39.9644 17.0193C39.9644 17.2695 39.9418 17.4512 39.8508 17.9742L39.6006 19.6795L39.5552 19.975L39.5096 20.2247L39.487 20.384V20.521H39.4874ZM42.8526 15.701C42.8295 15.6783 42.7843 15.6783 42.7385 15.6783C42.3296 15.6783 42.0794 15.8829 41.6929 16.4513L41.8065 15.7237H40.6699L39.8966 20.521H41.1698C41.6019 17.5882 41.7385 17.0878 42.3296 17.0878H42.4205C42.5341 16.5194 42.6934 16.0875 42.898 15.7008L42.8526 15.701Z" fill="white"/>
</svg>
