<svg width="157" height="156" viewBox="0 0 157 156" fill="none" xmlns="http://www.w3.org/2000/svg">
<rect x="0.996094" width="156" height="156" rx="16" fill="white"/>
<path d="M63.1248 21H58.4336V25.6912H63.1248V21Z" fill="black"/>
<path d="M67.6795 21H62.9883V25.6912H67.6795V21Z" fill="black"/>
<path d="M76.7888 21H72.0977V25.6912H76.7888V21Z" fill="black"/>
<path d="M81.3435 21H76.6523V25.6912H81.3435V21Z" fill="black"/>
<path d="M85.8982 21H81.207V25.6912H85.8982V21Z" fill="black"/>
<path d="M95.0076 21H90.3164V25.6912H95.0076V21Z" fill="black"/>
<path d="M63.1248 25.5543H58.4336V30.2455H63.1248V25.5543Z" fill="black"/>
<path d="M76.7888 25.5543H72.0977V30.2455H76.7888V25.5543Z" fill="black"/>
<path d="M81.3435 25.5543H76.6523V30.2455H81.3435V25.5543Z" fill="black"/>
<path d="M90.4529 25.5546H85.7617V30.2458H90.4529V25.5546Z" fill="black"/>
<path d="M95.0076 25.5546H90.3164V30.2458H95.0076V25.5546Z" fill="black"/>
<path d="M99.5623 25.5544H94.8711V30.2456H99.5623V25.5544Z" fill="black"/>
<path d="M63.1248 30.1091H58.4336V34.8002H63.1248V30.1091Z" fill="black"/>
<path d="M67.6795 30.1091H62.9883V34.8002H67.6795V30.1091Z" fill="black"/>
<path d="M76.7888 30.1091H72.0977V34.8002H76.7888V30.1091Z" fill="black"/>
<path d="M85.8982 30.1091H81.207V34.8002H85.8982V30.1091Z" fill="black"/>
<path d="M90.4529 30.109H85.7617V34.8001H90.4529V30.109Z" fill="black"/>
<path d="M67.6795 34.6636H62.9883V39.3548H67.6795V34.6636Z" fill="black"/>
<path d="M81.3435 34.6636H76.6523V39.3548H81.3435V34.6636Z" fill="black"/>
<path d="M90.4529 34.6638H85.7617V39.355H90.4529V34.6638Z" fill="black"/>
<path d="M99.5623 34.6638H94.8711V39.355H99.5623V34.6638Z" fill="black"/>
<path d="M90.4529 39.218H85.7617V43.9091H90.4529V39.218Z" fill="black"/>
<path d="M63.1248 43.7729H58.4336V48.4641H63.1248V43.7729Z" fill="black"/>
<path d="M67.6795 43.7729H62.9883V48.4641H67.6795V43.7729Z" fill="black"/>
<path d="M72.2341 43.7729H67.543V48.4641H72.2341V43.7729Z" fill="black"/>
<path d="M81.3435 43.7729H76.6523V48.4641H81.3435V43.7729Z" fill="black"/>
<path d="M85.8982 43.7729H81.207V48.4641H85.8982V43.7729Z" fill="black"/>
<path d="M90.4529 43.7726H85.7617V48.4637H90.4529V43.7726Z" fill="black"/>
<path d="M99.5623 43.7728H94.8711V48.464H99.5623V43.7728Z" fill="black"/>
<path d="M63.1248 48.3272H58.4336V53.0184H63.1248V48.3272Z" fill="black"/>
<path d="M72.2341 48.3272H67.543V53.0184H72.2341V48.3272Z" fill="black"/>
<path d="M81.3435 48.3272H76.6523V53.0184H81.3435V48.3272Z" fill="black"/>
<path d="M90.4529 48.327H85.7617V53.0181H90.4529V48.327Z" fill="black"/>
<path d="M99.5623 48.3272H94.8711V53.0183H99.5623V48.3272Z" fill="black"/>
<path d="M63.1248 52.8815H58.4336V57.5727H63.1248V52.8815Z" fill="black"/>
<path d="M72.2341 52.8817H67.543V57.5729H72.2341V52.8817Z" fill="black"/>
<path d="M85.8982 52.8815H81.207V57.5727H85.8982V52.8815Z" fill="black"/>
<path d="M90.4529 52.8815H85.7617V57.5727H90.4529V52.8815Z" fill="black"/>
<path d="M99.5623 52.8815H94.8711V57.5727H99.5623V52.8815Z" fill="black"/>
<path d="M35.7966 57.4363H31.1055V62.1274H35.7966V57.4363Z" fill="black"/>
<path d="M40.3513 57.4363H35.6602V62.1274H40.3513V57.4363Z" fill="black"/>
<path d="M44.906 57.4365H40.2148V62.1277H44.906V57.4365Z" fill="black"/>
<path d="M54.0154 57.4363H49.3242V62.1274H54.0154V57.4363Z" fill="black"/>
<path d="M63.1248 57.4367H58.4336V62.1279H63.1248V57.4367Z" fill="black"/>
<path d="M72.2341 57.4363H67.543V62.1274H72.2341V57.4363Z" fill="black"/>
<path d="M81.3435 57.4367H76.6523V62.1279H81.3435V57.4367Z" fill="black"/>
<path d="M85.8982 57.4367H81.207V62.1279H85.8982V57.4367Z" fill="black"/>
<path d="M90.4529 57.4364H85.7617V62.1276H90.4529V57.4364Z" fill="black"/>
<path d="M104.113 57.4366H99.4219V62.1278H104.113V57.4366Z" fill="black"/>
<path d="M108.668 57.4366H103.977V62.1278H108.668V57.4366Z" fill="black"/>
<path d="M113.222 57.4364H108.531V62.1276H113.222V57.4364Z" fill="black"/>
<path d="M126.886 57.4363H122.195V62.1274H126.886V57.4363Z" fill="black"/>
<path d="M131.441 57.4365H126.75V62.1277H131.441V57.4365Z" fill="black"/>
<path d="M135.996 57.4365H131.305V62.1277H135.996V57.4365Z" fill="black"/>
<path d="M31.242 61.9908H26.5508V66.682H31.242V61.9908Z" fill="black"/>
<path d="M40.3513 61.9908H35.6602V66.682H40.3513V61.9908Z" fill="black"/>
<path d="M44.906 61.9908H40.2148V66.682H44.906V61.9908Z" fill="black"/>
<path d="M63.1248 61.9908H58.4336V66.682H63.1248V61.9908Z" fill="black"/>
<path d="M72.2341 61.9908H67.543V66.682H72.2341V61.9908Z" fill="black"/>
<path d="M76.7888 61.9908H72.0977V66.682H76.7888V61.9908Z" fill="black"/>
<path d="M95.0076 61.9908H90.3164V66.6819H95.0076V61.9908Z" fill="black"/>
<path d="M113.222 61.9908H108.531V66.6819H113.222V61.9908Z" fill="black"/>
<path d="M131.441 61.9908H126.75V66.682H131.441V61.9908Z" fill="black"/>
<path d="M35.7966 66.5451H31.1055V71.2363H35.7966V66.5451Z" fill="black"/>
<path d="M40.3513 66.5451H35.6602V71.2363H40.3513V66.5451Z" fill="black"/>
<path d="M49.4607 66.5451H44.7695V71.2363H49.4607V66.5451Z" fill="black"/>
<path d="M54.0154 66.5453H49.3242V71.2365H54.0154V66.5453Z" fill="black"/>
<path d="M58.5701 66.5451H53.8789V71.2363H58.5701V66.5451Z" fill="black"/>
<path d="M72.2341 66.5451H67.543V71.2363H72.2341V66.5451Z" fill="black"/>
<path d="M76.7888 66.5451H72.0977V71.2363H76.7888V66.5451Z" fill="black"/>
<path d="M85.8982 66.5451H81.207V71.2363H85.8982V66.5451Z" fill="black"/>
<path d="M90.4529 66.5454H85.7617V71.2365H90.4529V66.5454Z" fill="black"/>
<path d="M108.668 66.5451H103.977V71.2363H108.668V66.5451Z" fill="black"/>
<path d="M113.222 66.5451H108.531V71.2363H113.222V66.5451Z" fill="black"/>
<path d="M122.332 66.5451H117.641V71.2363H122.332V66.5451Z" fill="black"/>
<path d="M131.441 66.5455H126.75V71.2367H131.441V66.5455Z" fill="black"/>
<path d="M135.996 66.5455H131.305V71.2367H135.996V66.5455Z" fill="black"/>
<path d="M31.242 71.0996H26.5508V75.7908H31.242V71.0996Z" fill="black"/>
<path d="M35.7966 71.0996H31.1055V75.7908H35.7966V71.0996Z" fill="black"/>
<path d="M49.4607 71.0996H44.7695V75.7908H49.4607V71.0996Z" fill="black"/>
<path d="M58.5701 71.0996H53.8789V75.7908H58.5701V71.0996Z" fill="black"/>
<path d="M63.1248 71.0996H58.4336V75.7908H63.1248V71.0996Z" fill="black"/>
<path d="M67.6795 71.0996H62.9883V75.7908H67.6795V71.0996Z" fill="black"/>
<path d="M72.2341 71.1003H67.543V75.7915H72.2341V71.1003Z" fill="black"/>
<path d="M76.7888 71.0996H72.0977V75.7908H76.7888V71.0996Z" fill="black"/>
<path d="M81.3435 71.0996H76.6523V75.7908H81.3435V71.0996Z" fill="black"/>
<path d="M90.4529 71.1H85.7617V75.7911H90.4529V71.1Z" fill="black"/>
<path d="M99.5623 71.1H94.8711V75.7911H99.5623V71.1Z" fill="black"/>
<path d="M104.113 71.0997H99.4219V75.7909H104.113V71.0997Z" fill="black"/>
<path d="M108.668 71.0997H103.977V75.7909H108.668V71.0997Z" fill="black"/>
<path d="M117.777 71.0997H113.086V75.7909H117.777V71.0997Z" fill="black"/>
<path d="M135.996 71.0999H131.305V75.791H135.996V71.0999Z" fill="black"/>
<path d="M26.6873 75.6546H21.9961V80.3458H26.6873V75.6546Z" fill="black"/>
<path d="M31.242 75.6546H26.5508V80.3458H31.242V75.6546Z" fill="black"/>
<path d="M35.7966 75.6546H31.1055V80.3458H35.7966V75.6546Z" fill="black"/>
<path d="M40.3513 75.6542H35.6602V80.3454H40.3513V75.6542Z" fill="black"/>
<path d="M44.906 75.6546H40.2148V80.3458H44.906V75.6546Z" fill="black"/>
<path d="M54.0154 75.6542H49.3242V80.3454H54.0154V75.6542Z" fill="black"/>
<path d="M72.2341 75.6542H67.543V80.3454H72.2341V75.6542Z" fill="black"/>
<path d="M76.7888 75.6546H72.0977V80.3458H76.7888V75.6546Z" fill="black"/>
<path d="M85.8982 75.6546H81.207V80.3458H85.8982V75.6546Z" fill="black"/>
<path d="M95.0076 75.6544H90.3164V80.3455H95.0076V75.6544Z" fill="black"/>
<path d="M108.668 75.6546H103.977V80.3458H108.668V75.6546Z" fill="black"/>
<path d="M113.222 75.6546H108.531V80.3458H113.222V75.6546Z" fill="black"/>
<path d="M117.777 75.6546H113.086V80.3458H117.777V75.6546Z" fill="black"/>
<path d="M126.886 75.6542H122.195V80.3454H126.886V75.6542Z" fill="black"/>
<path d="M131.441 75.6544H126.75V80.3456H131.441V75.6544Z" fill="black"/>
<path d="M135.996 75.6544H131.305V80.3456H135.996V75.6544Z" fill="black"/>
<path d="M26.6873 80.2089H21.9961V84.9001H26.6873V80.2089Z" fill="black"/>
<path d="M31.242 80.2089H26.5508V84.9001H31.242V80.2089Z" fill="black"/>
<path d="M35.7966 80.2089H31.1055V84.9001H35.7966V80.2089Z" fill="black"/>
<path d="M44.906 80.2089H40.2148V84.9001H44.906V80.2089Z" fill="black"/>
<path d="M49.4607 80.2089H44.7695V84.9001H49.4607V80.2089Z" fill="black"/>
<path d="M67.6795 80.2089H62.9883V84.9001H67.6795V80.2089Z" fill="black"/>
<path d="M90.4529 80.2087H85.7617V84.8999H90.4529V80.2087Z" fill="black"/>
<path d="M95.0076 80.2087H90.3164V84.8999H95.0076V80.2087Z" fill="black"/>
<path d="M113.222 80.209H108.531V84.9001H113.222V80.209Z" fill="black"/>
<path d="M122.332 80.2089H117.641V84.9001H122.332V80.2089Z" fill="black"/>
<path d="M131.441 80.2087H126.75V84.8999H131.441V80.2087Z" fill="black"/>
<path d="M26.6873 84.7635H21.9961V89.4546H26.6873V84.7635Z" fill="black"/>
<path d="M44.906 84.7635H40.2148V89.4546H44.906V84.7635Z" fill="black"/>
<path d="M54.0154 84.7632H49.3242V89.4544H54.0154V84.7632Z" fill="black"/>
<path d="M58.5701 84.7632H53.8789V89.4544H58.5701V84.7632Z" fill="black"/>
<path d="M67.6795 84.7632H62.9883V89.4544H67.6795V84.7632Z" fill="black"/>
<path d="M72.2341 84.7632H67.543V89.4544H72.2341V84.7632Z" fill="black"/>
<path d="M76.7888 84.7632H72.0977V89.4544H76.7888V84.7632Z" fill="black"/>
<path d="M90.4529 84.7636H85.7617V89.4547H90.4529V84.7636Z" fill="black"/>
<path d="M95.0076 84.7636H90.3164V89.4547H95.0076V84.7636Z" fill="black"/>
<path d="M99.5623 84.7633H94.8711V89.4545H99.5623V84.7633Z" fill="black"/>
<path d="M104.113 84.7633H99.4219V89.4545H104.113V84.7633Z" fill="black"/>
<path d="M113.222 84.7636H108.531V89.4547H113.222V84.7636Z" fill="black"/>
<path d="M117.777 84.7633H113.086V89.4545H117.777V84.7633Z" fill="black"/>
<path d="M122.332 84.7632H117.641V89.4544H122.332V84.7632Z" fill="black"/>
<path d="M131.441 84.7632H126.75V89.4544H131.441V84.7632Z" fill="black"/>
<path d="M135.996 84.7632H131.305V89.4544H135.996V84.7632Z" fill="black"/>
<path d="M26.6873 89.318H21.9961V94.0092H26.6873V89.318Z" fill="black"/>
<path d="M35.7966 89.3182H31.1055V94.0094H35.7966V89.3182Z" fill="black"/>
<path d="M44.906 89.318H40.2148V94.0092H44.906V89.318Z" fill="black"/>
<path d="M58.5701 89.3182H53.8789V94.0094H58.5701V89.3182Z" fill="black"/>
<path d="M63.1248 89.3182H58.4336V94.0094H63.1248V89.3182Z" fill="black"/>
<path d="M72.2341 89.3182H67.543V94.0094H72.2341V89.3182Z" fill="black"/>
<path d="M76.7888 89.3182H72.0977V94.0094H76.7888V89.3182Z" fill="black"/>
<path d="M90.4529 89.3179H85.7617V94.0091H90.4529V89.3179Z" fill="black"/>
<path d="M99.5623 89.3182H94.8711V94.0093H99.5623V89.3182Z" fill="black"/>
<path d="M113.222 89.3179H108.531V94.0091H113.222V89.3179Z" fill="black"/>
<path d="M117.777 89.3182H113.086V94.0093H117.777V89.3182Z" fill="black"/>
<path d="M135.996 89.318H131.305V94.0092H135.996V89.318Z" fill="black"/>
<path d="M26.6873 93.8725H21.9961V98.5637H26.6873V93.8725Z" fill="black"/>
<path d="M40.3513 93.8725H35.6602V98.5637H40.3513V93.8725Z" fill="black"/>
<path d="M44.906 93.8723H40.2148V98.5635H44.906V93.8723Z" fill="black"/>
<path d="M49.4607 93.8725H44.7695V98.5637H49.4607V93.8725Z" fill="black"/>
<path d="M54.0154 93.8725H49.3242V98.5637H54.0154V93.8725Z" fill="black"/>
<path d="M58.5701 93.8725H53.8789V98.5637H58.5701V93.8725Z" fill="black"/>
<path d="M67.6795 93.8725H62.9883V98.5637H67.6795V93.8725Z" fill="black"/>
<path d="M76.7888 93.8725H72.0977V98.5637H76.7888V93.8725Z" fill="black"/>
<path d="M99.5623 93.8725H94.8711V98.5637H99.5623V93.8725Z" fill="black"/>
<path d="M104.113 93.8725H99.4219V98.5637H104.113V93.8725Z" fill="black"/>
<path d="M108.668 93.8725H103.977V98.5637H108.668V93.8725Z" fill="black"/>
<path d="M113.222 93.8725H108.531V98.5637H113.222V93.8725Z" fill="black"/>
<path d="M117.777 93.8725H113.086V98.5637H117.777V93.8725Z" fill="black"/>
<path d="M126.886 93.8725H122.195V98.5637H126.886V93.8725Z" fill="black"/>
<path d="M63.1248 98.4268H58.4336V103.118H63.1248V98.4268Z" fill="black"/>
<path d="M72.2341 98.4268H67.543V103.118H72.2341V98.4268Z" fill="black"/>
<path d="M95.0076 98.4274H90.3164V103.119H95.0076V98.4274Z" fill="black"/>
<path d="M99.5623 98.4272H94.8711V103.118H99.5623V98.4272Z" fill="black"/>
<path d="M117.777 98.4269H113.086V103.118H117.777V98.4269Z" fill="black"/>
<path d="M122.332 98.4268H117.641V103.118H122.332V98.4268Z" fill="black"/>
<path d="M81.3435 102.981H76.6523V107.673H81.3435V102.981Z" fill="black"/>
<path d="M99.5623 102.982H94.8711V107.673H99.5623V102.982Z" fill="black"/>
<path d="M108.668 102.981H103.977V107.672H108.668V102.981Z" fill="black"/>
<path d="M117.777 102.981H113.086V107.672H117.777V102.981Z" fill="black"/>
<path d="M126.886 102.981H122.195V107.673H126.886V102.981Z" fill="black"/>
<path d="M131.441 102.982H126.75V107.673H131.441V102.982Z" fill="black"/>
<path d="M135.996 102.982H131.305V107.673H135.996V102.982Z" fill="black"/>
<path d="M67.6795 107.536H62.9883V112.228H67.6795V107.536Z" fill="black"/>
<path d="M72.2341 107.536H67.543V112.228H72.2341V107.536Z" fill="black"/>
<path d="M76.7888 107.536H72.0977V112.228H76.7888V107.536Z" fill="black"/>
<path d="M85.8982 107.536H81.207V112.228H85.8982V107.536Z" fill="black"/>
<path d="M95.0076 107.536H90.3164V112.227H95.0076V107.536Z" fill="black"/>
<path d="M99.5623 107.536H94.8711V112.227H99.5623V107.536Z" fill="black"/>
<path d="M117.777 107.536H113.086V112.228H117.777V107.536Z" fill="black"/>
<path d="M122.332 107.536H117.641V112.228H122.332V107.536Z" fill="black"/>
<path d="M63.1248 112.091H58.4336V116.782H63.1248V112.091Z" fill="black"/>
<path d="M72.2341 112.091H67.543V116.782H72.2341V112.091Z" fill="black"/>
<path d="M76.7888 112.091H72.0977V116.782H76.7888V112.091Z" fill="black"/>
<path d="M90.4529 112.091H85.7617V116.782H90.4529V112.091Z" fill="black"/>
<path d="M95.0076 112.091H90.3164V116.782H95.0076V112.091Z" fill="black"/>
<path d="M99.5623 112.091H94.8711V116.782H99.5623V112.091Z" fill="black"/>
<path d="M104.113 112.091H99.4219V116.782H104.113V112.091Z" fill="black"/>
<path d="M108.668 112.091H103.977V116.782H108.668V112.091Z" fill="black"/>
<path d="M113.222 112.091H108.531V116.782H113.222V112.091Z" fill="black"/>
<path d="M117.777 112.091H113.086V116.782H117.777V112.091Z" fill="black"/>
<path d="M126.886 112.091H122.195V116.782H126.886V112.091Z" fill="black"/>
<path d="M131.441 112.09H126.75V116.782H131.441V112.09Z" fill="black"/>
<path d="M63.1248 116.645H58.4336V121.336H63.1248V116.645Z" fill="black"/>
<path d="M76.7888 116.645H72.0977V121.336H76.7888V116.645Z" fill="black"/>
<path d="M81.3435 116.645H76.6523V121.336H81.3435V116.645Z" fill="black"/>
<path d="M90.4529 116.645H85.7617V121.336H90.4529V116.645Z" fill="black"/>
<path d="M104.113 116.645H99.4219V121.336H104.113V116.645Z" fill="black"/>
<path d="M108.668 116.645H103.977V121.336H108.668V116.645Z" fill="black"/>
<path d="M117.777 116.645H113.086V121.336H117.777V116.645Z" fill="black"/>
<path d="M122.332 116.645H117.641V121.336H122.332V116.645Z" fill="black"/>
<path d="M126.886 116.645H122.195V121.336H126.886V116.645Z" fill="black"/>
<path d="M135.996 116.645H131.305V121.336H135.996V116.645Z" fill="black"/>
<path d="M63.1248 121.2H58.4336V125.891H63.1248V121.2Z" fill="black"/>
<path d="M67.6795 121.2H62.9883V125.891H67.6795V121.2Z" fill="black"/>
<path d="M76.7888 121.2H72.0977V125.891H76.7888V121.2Z" fill="black"/>
<path d="M81.3435 121.2H76.6523V125.891H81.3435V121.2Z" fill="black"/>
<path d="M90.4529 121.2H85.7617V125.891H90.4529V121.2Z" fill="black"/>
<path d="M104.113 121.2H99.4219V125.891H104.113V121.2Z" fill="black"/>
<path d="M122.332 121.2H117.641V125.891H122.332V121.2Z" fill="black"/>
<path d="M126.886 121.2H122.195V125.891H126.886V121.2Z" fill="black"/>
<path d="M135.996 121.2H131.305V125.891H135.996V121.2Z" fill="black"/>
<path d="M67.6795 125.754H62.9883V130.445H67.6795V125.754Z" fill="black"/>
<path d="M81.3435 125.754H76.6523V130.445H81.3435V125.754Z" fill="black"/>
<path d="M99.5623 125.754H94.8711V130.445H99.5623V125.754Z" fill="black"/>
<path d="M108.668 125.754H103.977V130.445H108.668V125.754Z" fill="black"/>
<path d="M113.222 125.754H108.531V130.445H113.222V125.754Z" fill="black"/>
<path d="M117.777 125.754H113.086V130.445H117.777V125.754Z" fill="black"/>
<path d="M122.332 125.754H117.641V130.445H122.332V125.754Z" fill="black"/>
<path d="M135.996 125.754H131.305V130.445H135.996V125.754Z" fill="black"/>
<path d="M67.6795 130.309H62.9883V135H67.6795V130.309Z" fill="black"/>
<path d="M76.7888 130.309H72.0977V135H76.7888V130.309Z" fill="black"/>
<path d="M81.3435 130.309H76.6523V135H81.3435V130.309Z" fill="black"/>
<path d="M90.4529 130.309H85.7617V135H90.4529V130.309Z" fill="black"/>
<path d="M113.222 130.309H108.531V135H113.222V130.309Z" fill="black"/>
<path d="M117.777 130.309H113.086V135H117.777V130.309Z" fill="black"/>
<path d="M122.332 130.309H117.641V135H122.332V130.309Z" fill="black"/>
<path d="M126.886 130.309H122.195V135H126.886V130.309Z" fill="black"/>
<path d="M131.441 130.309H126.75V135H131.441V130.309Z" fill="black"/>
<path d="M135.996 130.309H131.305V135H135.996V130.309Z" fill="black"/>
<path d="M21.9961 21V52.8817H53.8778V21H21.9961ZM49.3233 48.3272H26.5506V25.5545H49.3233V48.3272Z" fill="black"/>
<path d="M103.977 21V52.8817H135.858V21H103.977ZM131.304 48.3272H108.531V25.5545H131.304V48.3272Z" fill="black"/>
<path d="M21.9961 102.982V134.863H53.8778V102.982H21.9961ZM49.3233 130.309H26.5506V107.536H49.3233V130.309Z" fill="black"/>
<path d="M44.773 30.1092H31.1094V43.7728H44.773V30.1092Z" fill="black"/>
<path d="M126.753 30.1094H113.09V43.773H126.753V30.1094Z" fill="black"/>
<path d="M44.773 112.091H31.1094V125.754H44.773V112.091Z" fill="black"/>
</svg>
