<svg width="39" height="39" viewBox="0 0 39 39" fill="none" xmlns="http://www.w3.org/2000/svg">
<rect width="39" height="39" rx="8" fill="#E8ECF1"/>
<g clip-path="url(#clip0_97_4494)">
<path d="M11.3666 16.916L11.7521 17.5887C12.0926 18.1834 12.6504 18.6223 13.3107 18.8109L15.6855 19.4877C16.391 19.6887 16.875 20.3326 16.875 21.0668V22.7033C16.875 23.1545 17.1293 23.5646 17.5312 23.7656C17.9332 23.9666 18.1875 24.3768 18.1875 24.8279V26.4275C18.1875 27.0674 18.7986 27.5309 19.4139 27.3545C20.0742 27.1658 20.5869 26.6367 20.7551 25.9682L20.8699 25.5088C21.0422 24.8156 21.4934 24.2209 22.1127 23.8682L22.4449 23.6795C23.0602 23.3309 23.4375 22.6746 23.4375 21.9691V21.6287C23.4375 21.1078 23.2283 20.6074 22.8592 20.2383L22.6992 20.0783C22.3301 19.7092 21.8297 19.5 21.3088 19.5H19.541C19.0857 19.5 18.6346 19.3811 18.2367 19.1555L16.8217 18.3475C16.6453 18.2449 16.51 18.0809 16.4443 17.8881C16.3131 17.4943 16.4895 17.0678 16.8627 16.8832L17.1047 16.7602C17.3754 16.6248 17.6912 16.6002 17.9783 16.6986L18.9299 17.0145C19.2662 17.1252 19.6354 16.998 19.8281 16.7068C20.0209 16.4197 20.0004 16.0383 19.7789 15.7717L19.2211 15.1031C18.8109 14.6109 18.815 13.8932 19.2334 13.4092L19.8773 12.6586C20.2383 12.2361 20.2957 11.6332 20.0209 11.1533L19.9225 10.9811C19.7789 10.9729 19.6395 10.9688 19.4959 10.9688C15.6896 10.9688 12.4617 13.4666 11.3666 16.916ZM28.0312 19.5C28.0312 17.9906 27.6375 16.5715 26.9484 15.3369L25.8984 15.7594C25.2545 16.0178 24.9223 16.7355 25.1396 17.3918L25.8328 19.4713C25.9764 19.8979 26.325 20.2219 26.7598 20.3285L27.9533 20.6279C28.0025 20.2588 28.0271 19.8814 28.0271 19.5H28.0312ZM9 19.5C9 16.7152 10.1062 14.0445 12.0754 12.0754C14.0445 10.1062 16.7152 9 19.5 9C22.2848 9 24.9555 10.1062 26.9246 12.0754C28.8938 14.0445 30 16.7152 30 19.5C30 22.2848 28.8938 24.9555 26.9246 26.9246C24.9555 28.8938 22.2848 30 19.5 30C16.7152 30 14.0445 28.8938 12.0754 26.9246C10.1062 24.9555 9 22.2848 9 19.5Z" fill="black"/>
</g>
<defs>
<clipPath id="clip0_97_4494">
<rect width="21" height="21" fill="white" transform="translate(9 9)"/>
</clipPath>
</defs>
</svg>
