<svg width="58" height="35" viewBox="0 0 58 35" fill="none" xmlns="http://www.w3.org/2000/svg">
<rect width="58" height="35" rx="5" fill="#0E4595"/>
<path d="M22.7859 24.2916L25.1369 10.4964H28.8972L26.5445 24.2916H22.7859ZM40.1293 10.7937C39.3844 10.5143 38.217 10.2143 36.7593 10.2143C33.0438 10.2143 30.4265 12.0853 30.4043 14.7669C30.3832 16.7492 32.2727 17.8551 33.6989 18.5149C35.1626 19.1911 35.6546 19.6223 35.6477 20.2262C35.6385 21.1508 34.4789 21.5733 33.3981 21.5733C31.8931 21.5733 31.0936 21.3642 29.8586 20.8491L29.3741 20.63L28.8463 23.7182C29.7246 24.1032 31.3487 24.4368 33.0349 24.4541C36.9876 24.4541 39.5534 22.6045 39.5827 19.7409C39.5968 18.1716 38.595 16.9774 36.4256 15.9928C35.1113 15.3546 34.3064 14.9287 34.315 14.2826C34.315 13.7092 34.9963 13.0959 36.4683 13.0959C37.698 13.0769 38.5888 13.345 39.2828 13.6245L39.6197 13.7837L40.1293 10.7937ZM49.8056 10.4962H46.8999C45.9998 10.4962 45.3262 10.7419 44.9309 11.6402L39.3466 24.2825H43.2951C43.2951 24.2825 43.9406 22.5826 44.0866 22.2094C44.5183 22.2094 48.3539 22.2153 48.9024 22.2153C49.0149 22.6983 49.3598 24.2825 49.3598 24.2825H52.849L49.8056 10.4957V10.4962ZM45.1955 19.4043C45.5065 18.6094 46.6937 15.5479 46.6937 15.5479C46.6715 15.5847 47.0023 14.7492 47.1922 14.2313L47.4463 15.4207C47.4463 15.4207 48.1664 18.7137 48.3169 19.4043H45.1955ZM19.5938 10.4962L15.9124 19.9039L15.5201 17.9921C14.8348 15.7882 12.6995 13.4006 10.3125 12.2052L13.6786 24.2697L17.657 24.2652L23.5768 10.496H19.5938" fill="white"/>
<path d="M12.4785 10.4956H6.41518L6.36719 10.7827C11.0843 11.9246 14.2056 14.6841 15.5015 17.9995L14.183 11.66C13.9554 10.7865 13.2953 10.5259 12.4786 10.4954" fill="#F2AE14"/>
</svg>
