<svg width="43" height="43" viewBox="0 0 43 43" fill="none" xmlns="http://www.w3.org/2000/svg">
<rect width="43" height="43" rx="10" fill="#178A52"/>
<g clip-path="url(#clip0_302_6)">
<path d="M22 14.5C17.8594 14.5 14.5 17.8594 14.5 22C14.5 26.1406 17.8594 29.5 22 29.5C22.6914 29.5 23.25 30.0586 23.25 30.75C23.25 31.4414 22.6914 32 22 32C16.4766 32 12 27.5234 12 22C12 16.4766 16.4766 12 22 12C27.5234 12 32 16.4766 32 22V23.25C32 25.3203 30.3203 27 28.25 27C27.1055 27 26.0781 26.4844 25.3906 25.6758C24.5 26.4961 23.3086 27 22 27C19.2383 27 17 24.7617 17 22C17 19.2383 19.2383 17 22 17C23.0898 17 24.0977 17.3477 24.918 17.9414C25.1406 17.7461 25.4297 17.625 25.75 17.625C26.4414 17.625 27 18.1836 27 18.875V22V23.25C27 23.9414 27.5586 24.5 28.25 24.5C28.9414 24.5 29.5 23.9414 29.5 23.25V22C29.5 17.8594 26.1406 14.5 22 14.5ZM24.5 22C24.5 21.337 24.2366 20.7011 23.7678 20.2322C23.2989 19.7634 22.663 19.5 22 19.5C21.337 19.5 20.7011 19.7634 20.2322 20.2322C19.7634 20.7011 19.5 21.337 19.5 22C19.5 22.663 19.7634 23.2989 20.2322 23.7678C20.7011 24.2366 21.337 24.5 22 24.5C22.663 24.5 23.2989 24.2366 23.7678 23.7678C24.2366 23.2989 24.5 22.663 24.5 22Z" fill="white"/>
</g>
<defs>
<clipPath id="clip0_302_6">
<rect width="20" height="20" fill="white" transform="translate(12 12)"/>
</clipPath>
</defs>
</svg>
