<svg width="28" height="28" viewBox="0 0 28 28" fill="none" xmlns="http://www.w3.org/2000/svg">
<rect x="0.5" y="0.5" width="27" height="27" rx="13.5" fill="#177547" stroke="white"/>
<path d="M11.75 7C11.243 7 10.8333 7.44687 10.8333 8V14H9.91667C9.40964 14 9 14.4469 9 15C9 15.5531 9.40964 16 9.91667 16H10.8333V17H9.91667C9.40964 17 9 17.4469 9 18C9 18.5531 9.40964 19 9.91667 19H10.8333V20C10.8333 20.5531 11.243 21 11.75 21C12.257 21 12.6667 20.5531 12.6667 20V19H17.25C17.757 19 18.1667 18.5531 18.1667 18C18.1667 17.4469 17.757 17 17.25 17H12.6667V16H15.875C18.1523 16 20 13.9844 20 11.5C20 9.01562 18.1523 7 15.875 7H11.75ZM15.875 14H12.6667V9H15.875C17.1411 9 18.1667 10.1188 18.1667 11.5C18.1667 12.8812 17.1411 14 15.875 14Z" fill="white"/>
</svg>
