<svg width="45" height="45" viewBox="0 0 45 45" fill="none" xmlns="http://www.w3.org/2000/svg">
<rect width="45" height="45" rx="10" fill="#44AEE4"/>
<g clip-path="url(#clip0_302_4)">
<path d="M22.3364 11.3665C16.0754 11.3665 11 16.4528 11 22.7272C11 29.0017 16.0754 34.088 22.3364 34.088C28.5973 34.088 33.6727 29.0017 33.6727 22.7272C33.6727 16.4528 28.5973 11.3665 22.3364 11.3665ZM27.591 19.0927C27.4204 20.8891 26.6822 25.2485 26.3065 27.2606C26.1476 28.1119 25.8346 28.3974 25.5318 28.4253C24.8735 28.486 24.3735 27.9893 23.7359 27.5704C22.7382 26.915 22.1745 26.507 21.206 25.8674C20.0867 25.1282 20.8123 24.7221 21.4502 24.0579C21.6171 23.8841 24.5177 21.2401 24.5738 21.0003C24.5808 20.9703 24.5875 20.8583 24.5211 20.7994C24.4546 20.7406 24.357 20.7605 24.2864 20.7765C24.1863 20.7993 22.5924 21.8551 19.5046 23.9439C19.0522 24.2552 18.6424 24.4069 18.2752 24.399C17.8705 24.3902 17.0919 24.1697 16.513 23.9811C15.8031 23.7498 15.2388 23.6275 15.288 23.2348C15.3136 23.0302 15.5947 22.821 16.1313 22.6072C19.4361 21.1642 21.6398 20.2129 22.7425 19.7532C25.8907 18.4409 26.5449 18.213 26.9712 18.2054C27.065 18.2038 27.2747 18.2271 27.4105 18.3375C27.5009 18.4162 27.5585 18.526 27.5719 18.6452C27.5949 18.7932 27.6013 18.9433 27.591 19.0927Z" fill="white"/>
</g>
<defs>
<clipPath id="clip0_302_4">
<rect width="22.6727" height="23.4545" fill="white" transform="translate(11 11)"/>
</clipPath>
</defs>
</svg>
