<svg width="45" height="45" viewBox="0 0 45 45" fill="none" xmlns="http://www.w3.org/2000/svg">
<rect width="45" height="45" rx="10" fill="#4986CC"/>
<path d="M12.5937 12.6349C11 14.2698 11 16.9015 11 22.1644V23.0947C11 28.3576 11 30.9893 12.5937 32.6242C14.1874 34.2591 16.7527 34.2591 21.8829 34.2591H22.7898C27.92 34.2591 30.4853 34.2591 32.079 32.6242C33.6727 30.9893 33.6727 28.3576 33.6727 23.0947V22.1644C33.6727 16.9015 33.6727 14.2698 32.079 12.6349C30.4853 11 27.92 11 22.7898 11H21.8829C16.7527 11 14.1874 11 12.5937 12.6349ZM14.826 18.0747H17.4145C17.4995 22.5132 19.4078 24.3933 20.9193 24.781V18.0747H23.3566V21.9027C24.8492 21.738 26.4175 19.9935 26.9465 18.0747H29.3838C29.1844 19.0698 28.787 20.012 28.2164 20.8425C27.6459 21.6729 26.9145 22.3736 26.0679 22.9009C27.0131 23.3823 27.848 24.064 28.5173 24.901C29.1866 25.738 29.6751 26.7112 29.9506 27.7563H27.2677C27.0205 26.8485 26.5174 26.0359 25.8215 25.4203C25.1258 24.8048 24.2683 24.4138 23.3566 24.2965V27.7563H23.0638C17.8963 27.7563 14.9488 24.122 14.826 18.0747Z" fill="white"/>
</svg>
